<svg width="60" height="89" viewBox="0 0 60 89" fill="none" xmlns="http://www.w3.org/2000/svg">
<g clip-path="url(#clip0_977_527)">
<path d="M15.3433 88.2104C23.3818 88.2104 29.9019 81.6446 29.9019 73.5498V58.8892H15.3433C7.30478 58.8892 0.784668 65.455 0.784668 73.5498C0.784668 81.6446 7.30478 88.2104 15.3433 88.2104Z" fill="#0ACF83"/>
<path d="M0.784668 44.2109C0.784668 36.1161 7.30478 29.5503 15.3433 29.5503H29.9019V58.8895H15.3433C7.30478 58.8715 0.784668 52.3057 0.784668 44.2109Z" fill="#A259FF"/>
<path d="M0.784668 14.8715C0.784668 6.77673 7.30478 0.210938 15.3433 0.210938H29.9019V29.5501H15.3433C7.30478 29.5501 0.784668 22.9664 0.784668 14.8715Z" fill="#F24E1E"/>
<path d="M29.9199 0.210938H44.4785C52.517 0.210938 59.0371 6.77673 59.0371 14.8715C59.0371 22.9664 52.517 29.5322 44.4785 29.5322H29.9199V0.210938Z" fill="#FF7262"/>
<path d="M59.0372 44.2109C59.0372 52.3057 52.517 58.8715 44.4785 58.8715C36.44 58.8715 29.9199 52.3057 29.9199 44.2109C29.9199 36.1161 36.44 29.5503 44.4785 29.5503C52.517 29.5503 59.0372 36.1161 59.0372 44.2109Z" fill="#1ABCFE"/>
</g>
<defs>
<clipPath id="clip0_977_527">
<rect width="58.2523" height="87.9996" fill="white" transform="translate(0.784668 0.210938)"/>
</clipPath>
</defs>
</svg>
